<svg xmlns="http://www.w3.org/2000/svg" width="1200" height="630" viewBox="0 0 1200 630" role="img" aria-labelledby="title desc">
  <title id="title">ToolNexus</title>
  <desc id="desc">ToolNexus premium developer utility platform</desc>
  <defs>
    <linearGradient id="bg" x1="0" y1="0" x2="1" y2="1">
      <stop offset="0%" stop-color="#0b1020" />
      <stop offset="50%" stop-color="#121a33" />
      <stop offset="100%" stop-color="#0f172a" />
    </linearGradient>
    <radialGradient id="glow" cx="0.22" cy="0.2" r="0.85">
      <stop offset="0%" stop-color="#38bdf8" stop-opacity="0.3" />
      <stop offset="100%" stop-color="#38bdf8" stop-opacity="0" />
    </radialGradient>
    <linearGradient id="accent" x1="0" y1="0" x2="1" y2="1">
      <stop offset="0%" stop-color="#60a5fa" />
      <stop offset="100%" stop-color="#22d3ee" />
    </linearGradient>
  </defs>
  <rect width="1200" height="630" fill="url(#bg)" />
  <rect width="1200" height="630" fill="url(#glow)" />
  <g opacity="0.16" stroke="#8ea2d6">
    <path d="M0 120h1200" />
    <path d="M0 220h1200" />
    <path d="M0 320h1200" />
    <path d="M0 420h1200" />
    <path d="M0 520h1200" />
    <path d="M180 0v630" />
    <path d="M380 0v630" />
    <path d="M580 0v630" />
    <path d="M780 0v630" />
    <path d="M980 0v630" />
  </g>
  <g transform="translate(150 140)">
    <rect x="0" y="0" width="96" height="96" rx="28" fill="#101a36" stroke="#2d3c68" />
    <circle cx="48" cy="48" r="12" fill="url(#accent)" />
    <circle cx="48" cy="48" r="26" fill="none" stroke="url(#accent)" stroke-width="4" opacity="0.9" />
  </g>
  <text x="280" y="220" fill="#ecf3ff" font-family="Inter, Segoe UI, Arial, sans-serif" font-size="96" font-weight="700" letter-spacing="-2">
    ToolNexus
  </text>
  <text x="280" y="292" fill="#9eb2de" font-family="Inter, Segoe UI, Arial, sans-serif" font-size="42" font-weight="500" letter-spacing="0.2">
    Premium developer utilities with keyboard-first speed.
  </text>
  <g transform="translate(280 370)" fill="#c7d7ff" font-family="Inter, Segoe UI, Arial, sans-serif" font-size="28">
    <text x="0" y="0">• Dark-first interface</text>
    <text x="0" y="56">• Command palette navigation</text>
    <text x="0" y="112">• Secure in-browser processing</text>
  </g>
</svg>
